<?xml version="1.0" standalone="no"?><!DOCTYPE svg PUBLIC "-//W3C//DTD SVG 1.1//EN" "http://www.w3.org/Graphics/SVG/1.1/DTD/svg11.dtd"><svg t="1692671058509" class="icon" viewBox="0 0 1024 1024" version="1.1" xmlns="http://www.w3.org/2000/svg" p-id="10763" xmlns:xlink="http://www.w3.org/1999/xlink" width="32" height="32"><path d="M729.61 893.91l-42.57 26.18a2.24 2.24 0 0 1-3.08-0.73L459.52 554.5c-0.65-1.06-0.32-2.46 0.74-3.11l42.55-26.17c1.06-0.65 2.46-0.32 3.11 0.74L730.35 890.8c0.65 1.06 0.32 2.46-0.74 3.11zM498.28 442.2l-40.06-45.56 43.06-171.01-161.93 69.84-74.7-46.92 11.28 50.43-72.49 46.57 2.96 31.7-65.82 54.97 172.05 18.48 53.15 145.81 32.95-55.56" fill="#E77063" p-id="10764"></path><path d="M378.31 632.43c-0.46 0-0.92-0.02-1.39-0.05a18.074 18.074 0 0 1-15.38-11.29l-62.15-154.85-162.78-36.59a18.068 18.068 0 0 1-13.6-13.38 18.11 18.11 0 0 1 5.98-18.12L257.06 291.2l-15.51-166.13a18.048 18.048 0 0 1 8.52-17.07 18.097 18.097 0 0 1 19.08 0.09l141.29 88.75 153.21-66.08c6.27-2.73 13.62-1.64 18.87 2.84 5.24 4.45 7.48 11.5 5.81 18.17l-40.74 161.8 110.18 125.29c4.55 5.16 5.76 12.46 3.14 18.82s-8.62 10.68-15.48 11.14l-166.48 11.25-85.11 143.51a18.043 18.043 0 0 1-15.53 8.85zM180.26 402.42l136.33 30.65c5.8 1.31 10.59 5.38 12.8 10.9l52.05 129.68 71.28-120.19c3.04-5.12 8.39-8.41 14.32-8.81l139.42-9.42-92.27-104.93a18.082 18.082 0 0 1-3.96-16.35l34.13-135.51-128.32 55.34c-5.47 2.34-11.75 1.86-16.76-1.29l-118.33-74.33 12.98 139.14c0.55 5.92-1.84 11.74-6.4 15.55l-107.27 89.57zM283.06 873.54c-0.31 0-0.61-0.01-0.93-0.04-4.56-0.35-8.54-3.27-10.25-7.52l-24.65-61.42-64.56-14.52a12.032 12.032 0 0 1-9.06-8.92c-1.08-4.46 0.46-9.14 3.99-12.08l50.78-42.42-6.14-65.89c-0.42-4.56 1.79-8.98 5.69-11.38 3.89-2.41 8.82-2.38 12.72 0.06l56.04 35.2 60.75-26.21c4.24-1.81 9.09-1.08 12.59 1.89 3.49 2.98 4.99 7.67 3.87 12.12l-16.16 64.17 43.71 49.69c3.02 3.44 3.84 8.31 2.09 12.55a12.025 12.025 0 0 1-10.33 7.42l-66.02 4.46-33.75 56.92c-2.2 3.7-6.14 5.92-10.38 5.92zM211.78 771.9l46.93 10.55c3.86 0.87 7.06 3.59 8.53 7.26l17.92 44.64 24.53-41.38c2.02-3.41 5.6-5.61 9.55-5.87l47.99-3.25-31.76-36.12c-2.62-2.98-3.6-7.05-2.64-10.89l11.74-46.64-44.15 19.05c-3.64 1.58-7.81 1.25-11.19-0.86L248.5 682.8l4.47 47.89c0.36 3.95-1.24 7.82-4.28 10.36l-36.91 30.85zM774.1 331.01c-0.31 0-0.61-0.01-0.93-0.04-4.56-0.35-8.54-3.27-10.25-7.52l-24.66-61.42-64.56-14.51a12.032 12.032 0 0 1-9.06-8.92 12.03 12.03 0 0 1 3.99-12.08l50.79-42.42-6.15-65.89a12.07 12.07 0 0 1 5.68-11.38c3.92-2.41 8.84-2.38 12.73 0.06l56.04 35.2 60.76-26.21c4.22-1.81 9.09-1.08 12.59 1.89 3.49 2.97 4.99 7.66 3.87 12.11l-16.16 64.18 43.71 49.69c3.02 3.45 3.84 8.31 2.09 12.55a12.052 12.052 0 0 1-10.33 7.43l-66.04 4.46-33.74 56.91a12.042 12.042 0 0 1-10.37 5.91z m-71.3-101.64l46.93 10.55c3.86 0.87 7.06 3.59 8.53 7.26l17.92 44.64 24.53-41.36c2.02-3.41 5.6-5.61 9.55-5.88l48-3.25-31.78-36.11c-2.62-2.98-3.6-7.06-2.64-10.9l11.75-46.65-44.16 19.05c-3.64 1.58-7.8 1.25-11.19-0.86l-40.73-25.58 4.48 47.89c0.36 3.95-1.24 7.82-4.28 10.36l-36.91 30.84z" fill="#0C0303" p-id="10765"></path><path d="M710.52 914.95c-4.54 0-9.13-0.53-13.67-1.61-15.13-3.61-27.95-12.88-36.11-26.13L476.17 587.14c-16.89-27.46-8.29-63.56 19.16-80.46 13.31-8.19 28.99-10.7 44.2-7.08 15.2 3.62 28.08 12.95 36.26 26.26L760.24 825.7c8.19 13.31 10.71 29.01 7.08 44.2-3.62 15.2-12.94 28.08-26.25 36.26-0.14 0.08-0.28 0.16-0.41 0.25l-0.22 0.13c-8.98 5.53-19.33 8.41-29.92 8.41zM525.93 534.14c-4.08 0-8.09 1.13-11.66 3.32-10.49 6.45-13.78 20.25-7.33 30.74l184.58 300.06c3.09 5.02 7.96 8.55 13.71 9.91 5.69 1.36 11.65 0.41 16.68-2.67 0 0 0.22-0.13 0.22-0.14 5.08-3.12 8.65-8.04 10.04-13.85 1.38-5.81 0.42-11.81-2.71-16.89L545.02 544.8c-3.13-5.09-8.05-8.65-13.86-10.04-1.73-0.41-3.48-0.62-5.23-0.62z" fill="#0C0303" p-id="10766"></path></svg>
