<?xml version="1.0" standalone="no"?><!DOCTYPE svg PUBLIC "-//W3C//DTD SVG 1.1//EN" "http://www.w3.org/Graphics/SVG/1.1/DTD/svg11.dtd"><svg t="1690542446843" class="icon" viewBox="0 0 1024 1024" version="1.1" xmlns="http://www.w3.org/2000/svg" p-id="2472" xmlns:xlink="http://www.w3.org/1999/xlink" width="32" height="32"><path d="M512 86.730667a96 96 0 0 1 64.96 166.688L800 810.506667h-10.666667a64 64 0 1 1 0 128H234.666667a64 64 0 1 1 0-128h-10.666667l221.056-558.965334a96 96 0 0 1 64.106667-164.768l1.045333-0.021333 0.010667-0.021333 0.010666 0.021333 1.770667-0.021333z m160 691.776H352a32 32 0 0 0 0 64h320a32 32 0 1 0 0-64z" fill="#1296db" p-id="2473"></path></svg>
