<?xml version="1.0" standalone="no"?><!DOCTYPE svg PUBLIC "-//W3C//DTD SVG 1.1//EN" "http://www.w3.org/Graphics/SVG/1.1/DTD/svg11.dtd"><svg t="1692493456970" class="icon" viewBox="0 0 1024 1024" version="1.1" xmlns="http://www.w3.org/2000/svg" p-id="4074" xmlns:xlink="http://www.w3.org/1999/xlink" width="32" height="32"><path d="M139.636364 232.727273a46.545455 46.545455 0 1 1-93.090909 0V139.636364a139.636364 139.636364 0 0 1 139.636363-139.636364h651.636364a139.636364 139.636364 0 0 1 139.636363 139.636364v744.727272a139.636364 139.636364 0 0 1-139.636363 139.636364H186.181818a139.636364 139.636364 0 0 1-139.636363-139.636364V418.909091a46.545455 46.545455 0 1 1 93.090909 0v465.454545a46.545455 46.545455 0 0 0 46.545454 46.545455h651.636364a46.545455 46.545455 0 0 0 46.545454-46.545455V139.636364a46.545455 46.545455 0 0 0-46.545454-46.545455H186.181818a46.545455 46.545455 0 0 0-46.545454 46.545455v93.090909z" fill="#43BCFF" p-id="4075"></path><path d="M386.001455 199.819636a46.545455 46.545455 0 0 1 65.815272 65.815273l-93.090909 93.090909a46.545455 46.545455 0 0 1-65.815273 0l-46.545454-46.545454a46.545455 46.545455 0 0 1 65.815273-65.815273L325.818182 260.002909l60.183273-60.183273zM558.498909 325.818182A46.545455 46.545455 0 1 1 558.545455 232.727273l185.344 0.232727a46.545455 46.545455 0 0 1-0.139637 93.090909L558.545455 325.818182zM558.498909 558.545455A46.545455 46.545455 0 1 1 558.545455 465.454545l185.344 0.232728a46.545455 46.545455 0 0 1-0.139637 93.090909L558.545455 558.545455zM386.001455 432.546909a46.545455 46.545455 0 1 1 65.815272 65.815273l-93.090909 93.090909a46.545455 46.545455 0 0 1-65.815273 0l-46.545454-46.545455a46.545455 46.545455 0 0 1 65.815273-65.815272l13.637818 13.637818 60.183273-60.183273zM558.498909 791.272727A46.545455 46.545455 0 1 1 558.545455 698.181818l185.344 0.232727a46.545455 46.545455 0 0 1-0.139637 93.09091L558.545455 791.272727zM386.001455 665.274182a46.545455 46.545455 0 1 1 65.815272 65.815273l-93.090909 93.090909a46.545455 46.545455 0 0 1-65.815273 0l-46.545454-46.545455a46.545455 46.545455 0 0 1 65.815273-65.815273l13.637818 13.637819 60.183273-60.183273z" fill="#43BCFF" p-id="4076"></path></svg>
